<svg id="Layer_1" data-name="Layer 1" xmlns="http://www.w3.org/2000/svg" viewBox="0 0 161.07 159.64"><defs><style>.cls-1{fill:#fff;}</style></defs><path class="cls-1" d="M355.56,417.41a44.93,44.93,0,0,0-3.33-3.81c-.35-.37-.7-.76-1.05-1.15-8.64-8.3-17-8.62-17-8.62-.06-.48-.14-1-.21-1.44a70.61,70.61,0,0,0-6.74-19.16,55.5,55.5,0,0,0-7.63-10,64.84,64.84,0,0,0-13.78-10.06,53.79,53.79,0,0,0-30-5.32c-22.57,2.44-42.57,21.38-45.43,43.75-.28,2.24-1,3.14-3.26,3.67A33.6,33.6,0,0,0,224,469.53l3.66,1.29c-1.54,1.2-2.39,2.23-3.47,2.64-10.56,4-16.61,14.25-14.75,25.15a22.58,22.58,0,0,0,22.46,18.51q27.69,0,55.37,0a22.64,22.64,0,0,0,22.59-18.4c2.05-10.59-4.15-21.21-14.67-25.2a25.79,25.79,0,0,1-2.36-1.16l.25-.73c4.86,0,9.71.05,14.56,0,8.56-.13,17.2.29,25.68-.65,13.62-1.51,22.92-9.47,27.35-22.26,4-11.56,2-22.05-5.07-31.2Zm-56.65,77.45a10.88,10.88,0,0,1-10.78,10.9q-28.41.08-56.81,0c-5.48,0-9.46-3.51-10.81-9.3-1-4.33,1.49-9.16,6.06-11.57.67,2,1.25,3.94,2,5.83,1.39,3.33,4.48,4.74,7.47,3.55s4.2-4.3,2.85-7.78a22.22,22.22,0,0,1,.1-17.4,22.61,22.61,0,0,1,24.26-13.41,22.31,22.31,0,0,1,18.69,21c.2,4.6,2.19,6.63,6.81,6.95A11,11,0,0,1,298.91,494.86Zm50.94-49a22.45,22.45,0,0,1-20.77,14.45c-12.67.06-25.35,0-38,.06a4.51,4.51,0,0,1-4.15-2.11c-7-9.5-16.54-14.31-28.25-14-10.87.29-19.64,5.2-26.33,13.83a3.77,3.77,0,0,1-3,1.36A22.31,22.31,0,0,1,213,437.12a22,22,0,0,1,16.72-20.8c1.46,4.72,2.68,9.51,4.43,14.1a5.39,5.39,0,0,0,9,2c1.9-1.91,2.14-4.1,1.12-6.58a43,43,0,0,1-3.17-17.78c.44-17.14,14-34.09,30.65-38.12,23.31-5.64,45.69,8.28,50.78,31.6a13,13,0,0,1,.22,1.95c-5.45,3-10.42,5.57-15.25,8.4a10.39,10.39,0,0,0-3.29,3.4,5.39,5.39,0,0,0,1.11,6.82c2.15,1.93,4.8,2,7.36.11a49.31,49.31,0,0,1,6.61-4.53,21.66,21.66,0,0,1,24.91,3.73A22.18,22.18,0,0,1,349.85,445.82Z" transform="translate(-201.65 -357.49)"/></svg>