<svg id="Layer_1" data-name="Layer 1" xmlns="http://www.w3.org/2000/svg" viewBox="0 0 191.49 191.57"><defs><style>.cls-1{fill:#fff;}</style></defs><path class="cls-1" d="M307.43,365.43c9.47-11.52,21.41-15.88,35.52-11.58,12.37,3.77,20,12.81,21.79,25.61,2,14.1-3.92,25-17.21,33.31a15,15,0,0,1,3.21,1.79,33.31,33.31,0,0,1,10,23c.61,14.41-9.35,28.92-23.29,32.55-5.64,1.47-8.2,4.2-9.8,9.28a7.88,7.88,0,0,1-4.25,4.47,5.94,5.94,0,0,1-5.23-1.51c-1.14-1.31-1.3-3.74-1.3-5.69,0-1.37.95-2.74,1.58-4.34H299.51c-1.11,2.65-2.19,5.4-3.39,8.11-1.4,3.19-4.43,4.58-7.27,3.46-3-1.21-4.26-4.31-3.05-7.68.43-1.2.9-2.39,1.51-4-6.22,0-12.14,0-18.06.06-.52,0-1.19.88-1.49,1.5-.93,2-1.71,4-2.56,6-1.55,3.7-4.41,5.29-7.43,4.17-3.34-1.25-4.42-4.47-2.87-8.49.39-1,.74-2,1.21-3.29-6.05,0-11.81,0-17.58.08a3.08,3.08,0,0,0-2,1.64c-1,2.14-1.74,4.44-2.72,6.61-1.45,3.19-4.5,4.54-7.33,3.38s-4.16-4.23-3.11-7.49c.55-1.69,1.32-3.31,2-5.1-.87-.35-1.59-.67-2.33-.91a33.8,33.8,0,0,1-23.22-33.64c.46-14.43,11.12-27.51,25.47-31,2.22-.53,3-1.41,3.27-3.67,2.85-22.38,22.83-41.32,45.41-43.76C286,357,296.88,359.54,307.43,365.43Zm13.51,39.72a31.6,31.6,0,0,0-.39-3.28c-5.51-23.44-27.33-37-50.59-31.42-16.67,4-30.28,20.93-30.73,38a46.05,46.05,0,0,0,3.18,18.07c1.77,4.55-1.34,8.75-5.92,7.75a6.79,6.79,0,0,1-4.23-3.56c-1.82-4.54-3-9.31-4.49-14-11,3.15-17.05,11.79-16.57,23.73.38,9.57,8.26,18.26,18.77,19.88,5,.76,10.14.43,15.21.44q41,0,81.95,0c10.28,0,19.66-7.58,21.7-17.23,2.27-10.74-2.65-21.09-12.44-25.51-8.73-3.94-16.78-2.47-24.28,3.43-1.65,1.3-4.11,2.63-6,2.37-4.79-.67-6.11-6.09-2.62-9.59A34.22,34.22,0,0,1,320.94,405.15Zm11.33-.89c9.62,1.21,18.81-5.71,21.23-15.84,2.29-9.63-3.62-20.28-13.17-23.68-9-3.19-20.11.52-23.61,7.92A53,53,0,0,1,332.27,404.26Z" transform="translate(-199.82 -326.1)"/><path class="cls-1" d="M302.81,510.91c.34-.87.9-2.44,1.53-4,1.3-3.22,2.51-6.47,4-9.6a5.56,5.56,0,0,1,10.18,4.44c-1.6,4.16-3.26,8.3-5.05,12.37a5.53,5.53,0,0,1-6.56,3.35C304.26,516.77,302.64,514.49,302.81,510.91Z" transform="translate(-199.82 -326.1)"/><path class="cls-1" d="M240.46,511.14c.18-.55.5-1.69.94-2.77,1.4-3.49,2.78-7,4.31-10.43,1.42-3.17,4.46-4.49,7.28-3.35a5.6,5.6,0,0,1,3.09,7.39c-1.55,4.16-3.23,8.29-5,12.36a5.59,5.59,0,0,1-6.41,3.17C242.06,516.84,240.33,514.47,240.46,511.14Z" transform="translate(-199.82 -326.1)"/><path class="cls-1" d="M277.39,517.66c-4.08-.09-6.8-3.72-5.53-7.34,1.58-4.48,3.44-8.87,5.42-13.18a5.3,5.3,0,0,1,7.12-2.36,5.25,5.25,0,0,1,2.92,6.88c-1.56,4.17-3.26,8.29-5,12.39A5.52,5.52,0,0,1,277.39,517.66Z" transform="translate(-199.82 -326.1)"/><path class="cls-1" d="M219.43,493.69c4.1.63,6.87,4.06,5.67,7.56-1.54,4.51-3.38,8.93-5.36,13.26a5.23,5.23,0,0,1-7.05,2.68,5.37,5.37,0,0,1-3.18-6.88,112.22,112.22,0,0,1,5.54-13.18C215.81,495.63,217.93,494.81,219.43,493.69Z" transform="translate(-199.82 -326.1)"/><path class="cls-1" d="M369.84,341.57c4.91,0,7.78,4.62,5.29,8.13a36,36,0,0,1-7.28,7.36c-2,1.58-4.59,1.15-6.55-.68s-2.6-4.44-1.07-6.47a62.51,62.51,0,0,1,7.67-7.77C368.46,341.61,369.54,341.65,369.84,341.57Z" transform="translate(-199.82 -326.1)"/><path class="cls-1" d="M382,389.56c-1.39,0-2.78.06-4.17,0a5.16,5.16,0,0,1-5-4.9c-.21-3,1.36-5.6,4.19-5.89a51.44,51.44,0,0,1,10.08,0c2.62.25,4.44,3,4.27,5.64a5.41,5.41,0,0,1-5.19,5.13C384.73,389.62,383.34,389.56,382,389.56Z" transform="translate(-199.82 -326.1)"/><path class="cls-1" d="M327.88,335.53c0-1.39-.05-2.78,0-4.17a5.42,5.42,0,0,1,5.07-5.25c2.6-.2,5.44,1.6,5.69,4.2a50.72,50.72,0,0,1,0,10.38c-.3,2.76-3.06,4.27-6.06,4a5.19,5.19,0,0,1-4.65-4.95C327.82,338.31,327.89,336.92,327.88,335.53Z" transform="translate(-199.82 -326.1)"/><path class="cls-1" d="M295.76,340.9c1.94.91,3.34,1.25,4.32,2.08a61.37,61.37,0,0,1,5.5,5.44,5.8,5.8,0,0,1,.05,7.82,5.65,5.65,0,0,1-7.8.17c-2.06-1.85-4.3-3.7-5.73-6a7.3,7.3,0,0,1-.6-5.72C292.11,343.11,294.28,342.14,295.76,340.9Z" transform="translate(-199.82 -326.1)"/><path class="cls-1" d="M364.71,409.72c1.89.93,3.27,1.31,4.26,2.16a61.91,61.91,0,0,1,5.28,5.22,5.7,5.7,0,0,1,0,8,5.54,5.54,0,0,1-7.78,0c-2.05-1.87-4.3-3.71-5.7-6a7.21,7.21,0,0,1-.46-5.73C361,411.81,363.19,410.9,364.71,409.72Z" transform="translate(-199.82 -326.1)"/></svg>