<svg id="Layer_1" data-name="Layer 1" xmlns="http://www.w3.org/2000/svg" viewBox="0 0 191.97 191.43"><defs><style>.cls-1{fill:#fff;}</style></defs><path class="cls-1" d="M226.92,335.35c27.52-.47,50.59,23,50.49,50.55-.1,27.19-23,50.4-50.88,50.27-27.29-.14-50.51-23.05-50.34-50.81C176.37,358.07,199.42,334.78,226.92,335.35Zm-39.6,50.16c-.18,21.36,17.82,39.45,39.36,39.57s39.56-17.88,39.6-39.34-17.71-39.16-39.22-39.41S187.49,364,187.32,385.51Z" transform="translate(-130.82 -289.99)"/><path class="cls-1" d="M162.54,315.57c2,1.21,3.65,1.84,4.8,2.94,5.16,5,10.23,10,15.26,15.15,2.7,2.74,2.77,6.15.36,8.47s-5.65,2.14-8.28-.44c-5.19-5.08-10.31-10.23-15.42-15.4-1.8-1.82-2.93-4.11-1.41-6.44C158.93,318.2,160.83,317.08,162.54,315.57Z" transform="translate(-130.82 -289.99)"/><path class="cls-1" d="M289.77,316.34c5.11.07,7.82,4.5,5.91,8.11a10.26,10.26,0,0,1-1.81,2.34c-4.92,4.94-9.83,9.88-14.81,14.76-2.81,2.75-6.1,2.88-8.49.51s-2.24-5.68.5-8.46c5-5,9.95-10,15.05-14.94A17.7,17.7,0,0,1,289.77,316.34Z" transform="translate(-130.82 -289.99)"/><path class="cls-1" d="M162.46,455.84c-1.7-1.54-3.53-2.71-4.65-4.36-1.4-2.07-.46-4.25,1.1-6,1.8-2,3.77-3.83,5.67-5.73,3.31-3.31,6.6-6.64,9.95-9.91,2.81-2.74,6.09-2.9,8.48-.53s2.27,5.69-.47,8.46c-5,5.1-10.09,10.18-15.26,15.15C166.14,454.05,164.5,454.65,162.46,455.84Z" transform="translate(-130.82 -289.99)"/><path class="cls-1" d="M274.09,427c2,1.1,3.65,1.65,4.8,2.75,5.24,5,10.37,10.19,15.44,15.38,2.63,2.69,2.68,5.89.38,8.23s-5.55,2.37-8.24-.24c-5.3-5.12-10.49-10.35-15.67-15.58-1.83-1.85-2.71-4.23-1.27-6.5C270.55,429.44,272.44,428.4,274.09,427Z" transform="translate(-130.82 -289.99)"/><path class="cls-1" d="M232.3,307.19c0,3.69,0,7.38,0,11.06a5.49,5.49,0,1,1-11-.09q-.07-11.22,0-22.42a5.44,5.44,0,0,1,5.53-5.75c3.15,0,5.39,2.38,5.44,5.84C232.34,299.62,232.3,303.41,232.3,307.19Z" transform="translate(-130.82 -289.99)"/><path class="cls-1" d="M147.67,391.19c-3.7,0-7.39,0-11.09,0-3.42-.05-5.79-2.38-5.76-5.51s2.39-5.4,5.86-5.42q11.23-.08,22.48,0a5.6,5.6,0,0,1,5.82,5.51c0,3.06-2.52,5.38-5.92,5.43C155.27,391.23,151.47,391.19,147.67,391.19Z" transform="translate(-130.82 -289.99)"/><path class="cls-1" d="M305.58,391.19c-3.7,0-7.4,0-11.1,0a5.48,5.48,0,1,1,0-10.93q11.24-.08,22.48,0c3.45,0,5.82,2.32,5.81,5.47s-2.36,5.42-5.81,5.46C313.17,391.23,309.37,391.19,305.58,391.19Z" transform="translate(-130.82 -289.99)"/><path class="cls-1" d="M232.29,464.46c0,3.78.05,7.57,0,11.36a5.48,5.48,0,1,1-11-.1q-.07-11.36,0-22.71a5.48,5.48,0,1,1,11,.09C232.34,456.88,232.29,460.67,232.29,464.46Z" transform="translate(-130.82 -289.99)"/><path class="cls-1" d="M246.56,323.21c2.12-4.65,4-9.45,6.48-13.88,1.16-2.05,3.83-2.41,6.18-1.26s3.91,3.29,3.07,5.81A92.76,92.76,0,0,1,256.87,327c-1.14,2.25-3.8,2.52-6.13,1.72S247.05,326.11,246.56,323.21Z" transform="translate(-130.82 -289.99)"/><path class="cls-1" d="M289.49,365.83c-2.95-.3-4.75-1.67-5.63-4.18a5.22,5.22,0,0,1,2.68-6.55,112,112,0,0,1,11.28-4.67,5.53,5.53,0,0,1,4,10.3C297.76,362.56,293.6,364.14,289.49,365.83Z" transform="translate(-130.82 -289.99)"/><path class="cls-1" d="M170,412.77c-.64.76-1.61,2.77-3.22,3.65a76.42,76.42,0,0,1-10.39,4.45,5.63,5.63,0,0,1-7.6-3.29c-1.07-2.87.32-5.82,3.54-7.22s6.41-2.71,9.67-3.92C166.16,404.89,170.06,407.42,170,412.77Z" transform="translate(-130.82 -289.99)"/><path class="cls-1" d="M289.41,405.4c4.67,2.1,9.49,3.94,13.94,6.43,2.07,1.15,2.45,3.79,1.32,6.16s-3.26,3.94-5.79,3.12a93.17,93.17,0,0,1-13.18-5.38c-2.26-1.13-2.49-3.73-1.8-6.11S286.63,406,289.41,405.4Z" transform="translate(-130.82 -289.99)"/><path class="cls-1" d="M207,448.29c-2.14,4.64-4,9.45-6.54,13.86-1.17,2-3.86,2.34-6.2,1.15s-3.8-3.2-3-5.58a93.06,93.06,0,0,1,5.53-13.4c1.14-2.23,3.83-2.45,6.15-1.61S206.59,445.4,207,448.29Z" transform="translate(-130.82 -289.99)"/><path class="cls-1" d="M262.49,457.24c-.07,3.71-1.43,5.59-4.16,6.39a4.9,4.9,0,0,1-6.1-2.5,92,92,0,0,1-4.88-11.48,5.49,5.49,0,0,1,3.42-7,5.64,5.64,0,0,1,7.13,3.29C259.63,449.9,261.17,454,262.49,457.24Z" transform="translate(-130.82 -289.99)"/><path class="cls-1" d="M206.91,323.3c-.41,2.95-1.78,4.8-4.35,5.5s-5.12.09-6.37-2.53a111.16,111.16,0,0,1-4.78-11.51,5.51,5.51,0,0,1,10.24-4C203.55,314.87,205.17,319.11,206.91,323.3Z" transform="translate(-130.82 -289.99)"/><path class="cls-1" d="M164.17,366c-4.67-2.11-9.49-3.94-13.94-6.44-2.06-1.15-2.44-3.8-1.3-6.16s3.28-3.92,5.81-3.1a93.22,93.22,0,0,1,13.18,5.39c2.26,1.14,2.54,3.78,1.75,6.11S167.09,365.51,164.17,366Z" transform="translate(-130.82 -289.99)"/></svg>