<svg id="Layer_1" data-name="Layer 1" xmlns="http://www.w3.org/2000/svg" viewBox="0 0 191.55 145.75"><defs><style>.cls-1{fill:#fff;}</style></defs><path class="cls-1" d="M300.4,382.87a46.92,46.92,0,0,1,9.47-18.37c11.72-13.48,26.5-18.73,44.1-16.19,3.51.51,5.43,2.37,5.7,5.16.32,3.25-1.22,5.06-5.58,6.59A20.19,20.19,0,0,0,340.22,379,20.51,20.51,0,0,0,380,386.3c.26-.75.46-1.53.78-2.25,1.08-2.4,2.87-3.81,5.59-3.62a5,5,0,0,1,4.94,4,42,42,0,0,1-.9,23.53c-5.32,16.35-16.49,26.79-33,31.63l-1.62.46c.36.75.6,1.37.93,1.93,12,20,1.71,44.82-20.93,50.43a33.86,33.86,0,0,1-8,1q-46.35.09-92.71,0a33.68,33.68,0,0,1-7.87-66.52,3.67,3.67,0,0,0,2.26-2.45c3.88-23.25,20.38-40.23,43.2-44.34C282.13,378.43,291.18,379.65,300.4,382.87Zm-71.26,55.36a3.15,3.15,0,0,0-.7,0c-10.62,2.91-17.38,13.47-15.92,24.87,1.31,10.28,10.9,18.88,21.44,18.91q47.39.1,94.77,0a22.33,22.33,0,0,0,10.16-42c-8.55-4.55-18.1-3.36-25.59,2.88-1.55,1.29-3.9,2.53-5.72,2.34-1.61-.18-3.45-2.14-4.39-3.77-1.19-2.09-.12-4.24,1.58-5.88a34.2,34.2,0,0,1,17.16-9,17.49,17.49,0,0,0,0-2.52c-3.73-23.69-30.17-39.31-53.05-31.53C247,400,234.28,424.68,243.4,447.13c1.59,3.91.4,7.42-2.74,8.53s-6.34-.45-7.76-4.56S230.4,442.6,229.14,438.23Zm150.46-33c-15.07,9.48-30.28,6.43-39.74-1.88a30.73,30.73,0,0,1-10.65-20.07c-.93-8,.91-15.46,6-22.82-12.87,4.89-20.6,13.26-24,25.66a3.2,3.2,0,0,0,1.45,3.78c10.68,7.91,17.52,18.41,19.92,31.45.73,4,2,6.08,6.1,6.55,2.7.31,5.31,1.94,8,1.95a32.05,32.05,0,0,0,15.44-4A36,36,0,0,0,379.6,405.19Z" transform="translate(-201.06 -347.69)"/></svg>