<svg id="Layer_1" data-name="Layer 1" xmlns="http://www.w3.org/2000/svg" viewBox="0 0 191.58 191.56"><defs><style>.cls-1{fill:#fff;}</style></defs><path class="cls-1" d="M289.36,467.3c-6,0-11.71-.06-17.38.06a3,3,0,0,0-2.09,1.47c-.93,1.75-1.56,3.65-2.32,5.49-1.75,4.19-4.53,5.85-7.68,4.6-3.52-1.4-4.48-4.41-2.78-8.72.32-.82.63-1.64,1.12-2.89-6.19,0-12.11,0-18,.08-.58,0-1.34,1-1.67,1.72-1,2.07-1.66,4.25-2.6,6.33-1.47,3.28-4.37,4.61-7.23,3.45-3.09-1.25-4.35-4.22-3.17-7.65.55-1.59,1.25-3.13,1.86-4.66-3-1.38-6-2.51-8.72-4.06-11.43-6.51-18.31-20.06-16.62-32.41,2-14.67,11.62-25.87,25.32-29.18,2.2-.53,3-1.38,3.29-3.65,2.84-22.37,22.86-41.37,45.37-43.77a59,59,0,0,1,25.1,3c.61-1.67,1.2-3.33,1.83-5A46.79,46.79,0,0,1,354.86,322c3.44.62,5.4,2.43,5.65,5.23.27,3.06-1.2,5-4.8,6.23-9.38,3.27-14.95,11-14.63,20.23.32,9.41,6.33,16.83,15.69,19.39,9.72,2.67,20.53-3.1,24.06-12.82.17-.47.32-.94.49-1.41,1.2-3.42,3.07-4.86,6-4.65s4.77,2.1,5.32,5.53a46.52,46.52,0,0,1-3.3,27.15c-6.47,14.27-17.55,23-32.76,27,.95,1.82,1.93,3.52,2.77,5.29A33.71,33.71,0,0,1,335,466.71a4.84,4.84,0,0,0-2.88,2.28c-1.19,2.16-1.87,4.59-2.94,6.83-1.44,3-4.36,4.2-7.14,3-3.05-1.29-4.23-4-3.11-7.38.44-1.29.95-2.56,1.51-4H301.59c-1.11,2.65-2.18,5.3-3.34,7.92-1.46,3.31-4.29,4.71-7.15,3.61-3.25-1.26-4.44-4.23-3.13-7.82C288.37,470,288.78,468.91,289.36,467.3ZM230,412c-11.18,2.86-17.93,12.9-16.63,24.79,1.14,10.41,10.93,19.16,21.87,19.19q47.08.12,94.19,0A22.4,22.4,0,0,0,344.21,417a21.71,21.71,0,0,0-24.65-3.72c-2.45,1.21-4.58,3.1-6.84,4.7-2.58,1.82-5.57,1.64-7.56-.49a5.58,5.58,0,0,1,.14-7.82,11.7,11.7,0,0,1,2.68-2.35c4.79-2.69,9.65-5.26,14.91-8.11a11.82,11.82,0,0,0-.14-1.52c-4.34-24.8-31.68-40-55.15-30.6a41.39,41.39,0,0,0-23.4,53.65c1.54,4,.52,7.37-2.61,8.59s-6.37-.29-7.81-4.41S231.25,416.43,230,412Zm105.6-77.37c-11.07,2.92-22.08,15-23.47,25.56a3.74,3.74,0,0,0,1.06,3c12.33,9.3,19.32,21.63,21.26,36.87,14.23,5.25,17.16,4.44,27.46,0,9.17-3.93,17.58-14.22,17.92-20.71-15,9.55-31.12,5.72-40.58-3.64S325.71,350.12,335.56,334.58Z" transform="translate(-201.79 -321.25)"/><path class="cls-1" d="M280.32,512.8c-5-.12-7.66-3.72-6.39-7.36,1.54-4.39,3.37-8.69,5.3-12.92a5.22,5.22,0,0,1,7-2.58c2.81,1.25,4.16,3.95,3.1,6.8a116.23,116.23,0,0,1-5.19,12.63C283.33,511.06,281.18,512.08,280.32,512.8Z" transform="translate(-201.79 -321.25)"/><path class="cls-1" d="M304.86,506.19c.22-.59.62-1.8,1.1-3,1.41-3.5,2.74-7,4.3-10.45a5.55,5.55,0,0,1,10.22,4.3c-1.6,4.16-3.25,8.31-5.05,12.39a5.45,5.45,0,0,1-6.39,3.16C306.37,511.93,304.72,509.68,304.86,506.19Z" transform="translate(-201.79 -321.25)"/><path class="cls-1" d="M211.4,506.51a10.3,10.3,0,0,1,.43-1.77c1.54-3.86,3.06-7.73,4.71-11.55,1.39-3.19,4.44-4.52,7.26-3.33a5.51,5.51,0,0,1,3.19,7.35c-1.53,4.07-3.19,8.1-4.94,12.09a5.6,5.6,0,0,1-6.32,3.37C213.09,512.07,211.37,509.84,211.4,506.51Z" transform="translate(-201.79 -321.25)"/><path class="cls-1" d="M242.55,506.05c.24-.64.7-1.93,1.22-3.2,1.42-3.49,2.74-7,4.36-10.41a5.24,5.24,0,0,1,6.81-2.59c2.82,1.16,4.33,3.85,3.3,6.74-1.58,4.47-3.34,8.9-5.35,13.19a5.05,5.05,0,0,1-6.26,2.78C244,511.89,242.36,509.53,242.55,506.05Z" transform="translate(-201.79 -321.25)"/></svg>