<svg id="Layer_1" data-name="Layer 1" xmlns="http://www.w3.org/2000/svg" viewBox="0 0 191.45 191.47"><defs><style>.cls-1{fill:#fff;}</style></defs><path class="cls-1" d="M235.42,490.67c-3.3-2-6.51-4-9.71-6-4-2.45-4.63-4.39-2.94-8.7,1.3-3.33,2.67-6.62,4.08-10.11-.8-.35-1.47-.73-2.18-1a33.73,33.73,0,0,1-23.34-33.81c.56-14.45,11.2-27.36,25.61-30.83,2.09-.5,2.83-1.39,3.1-3.49,2.81-22.35,23-41.58,45.28-43.89A55.14,55.14,0,0,1,308.78,360c14.8-18.73,38.71-15.11,49.89-2.36,11.47,13.09,11.69,36.69-9.26,49.67a18.73,18.73,0,0,1,3.09,2.17c9,9.81,12.06,21.2,7.85,33.92-4.12,12.45-13.06,19.84-25.83,22.73a4.85,4.85,0,0,0-2.92,2.22c-1.36,2.63-2.33,5.46-3.59,8.53l9.34,5.78c4.35,2.69,5,4.7,3.12,9.42-2.29,5.61-4.58,11.22-7,16.79a5.2,5.2,0,0,1-5.51,3.29,5.12,5.12,0,0,1-5-4.41,8.67,8.67,0,0,1,.67-4.28c1.61-4.25,3.4-8.43,5.19-12.8-3.32-2-6.45-3.95-9.57-5.88-4-2.5-4.76-4.63-3-9,1.16-2.92,2.35-5.84,3.67-9.09-6.19,0-12,0-17.72.06a2.29,2.29,0,0,0-1.67,1.16c-1.3,2.87-2.46,5.82-3.75,9,3.36,2.05,6.57,4,9.76,6,3.81,2.37,4.56,4.63,2.87,8.8q-3.18,7.88-6.45,15.71c-1.73,4.15-4.49,5.67-7.78,4.35s-4.27-4.42-2.65-8.46,3.36-8.24,5.15-12.62c-3.31-2-6.52-4-9.71-6-3.83-2.37-4.58-4.64-2.92-8.79,1.17-2.93,2.36-5.85,3.72-9.19-6.21,0-12.05,0-17.88,0-1.37,0-5.57,9.32-4.73,10.39a6.36,6.36,0,0,0,1.71,1.16c2.72,1.67,5.48,3.26,8.15,5,3,1.93,3.8,4.19,2.55,7.41q-3.53,9-7.32,17.93a5.4,5.4,0,0,1-7.4,3c-2.89-1.23-4.09-4.25-2.83-7.46,1.74-4.44,3.57-8.83,5.5-13.57-3.28-2-6.58-4-9.86-6-3.65-2.26-4.4-4.53-2.84-8.55,1.15-3,2.34-5.9,3.5-8.84,0-.08-.05-.19-.15-.53-5.68,0-11.44,0-17.2.05-.6,0-1.21.7-1.79,1.11a1.14,1.14,0,0,0-.3.5c-3.84,8.34-3.84,8.34,4,13.1.93.57,1.89,1.09,2.81,1.7,3.18,2.09,4,4.44,2.62,7.92q-3.42,8.57-7,17.08c-1.47,3.46-4.35,4.78-7.41,3.59s-4.33-4.35-2.9-7.95C231.75,499.48,233.56,495.2,235.42,490.67Zm-6.08-79.29c-11,2.63-17.87,12.77-16.61,24.7,1.08,10.26,10.79,19.19,21.52,19.23q47.38.18,94.79,0a22.39,22.39,0,0,0,14.61-38.84A21.75,21.75,0,0,0,319,412.69a39.36,39.36,0,0,0-6.37,4.34c-3,2.27-6.1,2.22-8.24-.29s-1.8-5.53.69-8a10.91,10.91,0,0,1,2.25-2c4.8-2.67,9.65-5.26,14.94-8.12a9,9,0,0,0-.13-1.47c-4.19-24.75-31.61-40-55.11-30.7-20.47,8.11-32.34,31.93-23.36,53.92,1.54,3.76.4,7.11-2.64,8.34s-6.3-.17-7.69-4.08C231.82,420.4,230.71,416,229.34,411.38Zm104.38-12.56c9.41,1.33,18.42-5.34,21.11-15.48,2.54-9.56-3.14-20.19-12.73-23.84-9-3.42-20.12.16-24,7.74A53,53,0,0,1,333.72,398.82Z" transform="translate(-201.31 -320.73)"/><path class="cls-1" d="M378,341.12c-.9,1.94-1.24,3.35-2.07,4.33a55.38,55.38,0,0,1-5.45,5.49,5.57,5.57,0,0,1-7.94-7.82c1.77-2,3.51-4.22,5.74-5.55a7.93,7.93,0,0,1,6-.71C375.78,337.41,376.75,339.64,378,341.12Z" transform="translate(-201.31 -320.73)"/><path class="cls-1" d="M383.22,384.16c-1.3,0-2.59,0-3.88,0a5.18,5.18,0,0,1-5.12-4.78c-.27-3.13,1.39-5.74,4.37-6a53.71,53.71,0,0,1,9.49,0,5.32,5.32,0,0,1,4.67,5.62,5.41,5.41,0,0,1-5.37,5.25C386,384.2,384.6,384.16,383.22,384.16Z" transform="translate(-201.31 -320.73)"/><path class="cls-1" d="M340.48,330a45.17,45.17,0,0,1-.23,4.69c-.45,3-2.78,4.75-5.91,4.58a5.15,5.15,0,0,1-5-5.22c-.07-2.68-.07-5.37,0-8a5.37,5.37,0,0,1,5-5.28,5.48,5.48,0,0,1,5.81,4.46A41.14,41.14,0,0,1,340.48,330Z" transform="translate(-201.31 -320.73)"/><path class="cls-1" d="M308.92,347.64c-.84,1.14-1.64,3.25-3.12,4s-4.21.87-5.5,0a37.91,37.91,0,0,1-7.2-7c-1.62-1.93-1.08-5,.73-6.81s4.46-2.44,6.49-.9a62.54,62.54,0,0,1,7.57,7.44C308.42,344.87,308.43,345.94,308.92,347.64Z" transform="translate(-201.31 -320.73)"/><path class="cls-1" d="M360.38,410c1.21-1.51,2.15-3.7,3.72-4.34a7.12,7.12,0,0,1,5.75.46c2.44,1.58,4.41,4,6.36,6.2a5.57,5.57,0,0,1-.22,7.1c-1.7,1.9-4.78,2.72-6.73,1.14a74.22,74.22,0,0,1-7.56-7.49c-.54-.57-.54-1.64-.79-2.48Z" transform="translate(-201.31 -320.73)"/></svg>