<svg id="Layer_1" data-name="Layer 1" xmlns="http://www.w3.org/2000/svg" viewBox="0 0 191.47 191.68"><defs><style>.cls-1{fill:#fff;}</style></defs><path class="cls-1" d="M255.29,384c-3.28-.93-6.32-1.78-9.35-2.66-3.51-1-5.35-3.85-4.53-6.89s3.85-4.73,7.37-3.89c3.37.81,6.7,1.8,10.06,2.69,2.15.58,7.84-1.45,9.06-3.2s-.08-6.3-1.71-7.56a9.42,9.42,0,0,0-9.95-1.37,56.27,56.27,0,0,1-7.16,2c-3.66.9-6.83-.73-7.67-3.84s1.13-6,4.81-7c1.43-.4,2.88-.73,4.31-1.12s2.85-.81,4.68-1.33c-.74-3-1.44-5.91-2.21-8.84-1-4,.3-6.93,3.62-7.91,3.13-.93,5.9.86,7.05,4.67.94,3.14,1.78,6.31,2.62,9.47.62,2.3,5.06,6.35,7.31,6.59,1.64.18,5.5-3.33,5.69-5,.44-3.91-.42-7.13-3.78-9.65a43.83,43.83,0,0,1-5.73-5.67,5.65,5.65,0,0,1-.2-7.83c2.17-2.32,5.38-2.41,8-.13a48.76,48.76,0,0,1,3.62,3.57c1.09,1.16,2.08,2.41,3.85,4.48,2.33-2.72,4.16-5.07,6.22-7.21,2.9-3,6.21-3.29,8.67-.95s2.27,5.84-.76,8.92c-2.24,2.27-4.4,4.64-6.79,6.74-1.67,1.47-2,3.11-2.14,5.22-.17,3.07.43,5.16,3.54,6.5a4.59,4.59,0,0,0,4.29.09c3.75-1.63,5.58-4.3,6.13-8.28a46.86,46.86,0,0,1,2-7.47c1-3.26,4-4.93,6.92-4.06a5.66,5.66,0,0,1,3.9,7.06c-.39,1.64-.93,3.25-1.36,4.88s-.75,3.06-1.18,4.81c3,.8,5.85,1.55,8.69,2.32,4.05,1.11,5.93,3.78,5,7.11-.94,3.51-3.87,4.86-8.09,3.72-3.26-.87-6.5-1.83-9.78-2.6-5-1.18-10.23,4.35-8.73,9.17.47,1.48,6.58,4.41,8.43,3.94,3.36-.86,6.71-1.79,10.06-2.7,4.19-1.14,7.18.23,8.11,3.73.89,3.34-.84,5.79-5,7-2.76.81-5.53,1.54-8.69,2.42.76,3,1.48,5.93,2.26,8.86,1.08,4-.35,7-3.95,8-3,.84-5.82-1.24-6.86-5-.7-2.59-1.27-5.21-2-7.78-.69-2.31-1.33-4.33-3.72-6-3.54-2.48-6.13-1.43-9,.51-.3.2-.77.54-.75.78.35,3.18-1.38,6.69,1.91,9.43a90.63,90.63,0,0,1,7.43,7.37c2.5,2.6,2.54,6,.2,8.25s-5.34,2.18-8-.24a48.77,48.77,0,0,1-3.59-3.6c-1.05-1.19-2-2.49-3.17-4-2.75,2.83-4.85,5.07-7,7.22-2.91,2.86-5.94,3-8.43.63-2.33-2.27-2.15-5.78.48-8.48,2.08-2.14,4.13-4.34,6.36-6.32,1.92-1.7,2.5-3.61,2.83-6.17.52-4.14-1.85-5.62-4.76-7.07a2.17,2.17,0,0,0-1.07-.28c-2.37.26-6.66,4.2-7.31,6.59-.91,3.35-1.81,6.71-2.84,10s-3.78,5-6.52,4.21a5.69,5.69,0,0,1-4.21-7.14C253.45,390.53,254.38,387.4,255.29,384Zm35.06-17.15a5.33,5.33,0,0,0-5.34-5.53,5.49,5.49,0,0,0-5.68,5.56,5.34,5.34,0,0,0,5.4,5.47A5.24,5.24,0,0,0,290.35,366.89Z" transform="translate(-199.97 -323.88)"/><path class="cls-1" d="M301.78,433.13H250.92c-.9,0-1.8,0-2.69,0-3.9-.13-6.38-2.35-6.35-5.65s2.47-5.42,6.44-5.42h94.25c6.27,0,12.6.38,18.61-1.87,9.4-3.51,16.24-9.53,18.61-19.72,2.61-11.28-4.29-23.6-14.88-26.6-9.24-2.61-19.41,3.18-21.13,12-1.62,8.33,5.5,16.16,12.93,14.07a15.76,15.76,0,0,0,4.6-2.61c2.6-1.88,5.82-1.81,7.85.35s1.91,5.64-.43,8c-10.43,10.66-29,6-34.65-8.67-5.4-14.09,2.65-29.39,17.74-33.73,16.73-4.81,33.47,5,38.29,22.49,5.37,19.45-5.91,39.27-26.08,45.15a57.6,57.6,0,0,1-15,2.07C333.3,433.3,317.54,433.13,301.78,433.13Z" transform="translate(-199.97 -323.88)"/><path class="cls-1" d="M281.49,455.57c-6,0-12,0-17.95,0-4.15,0-6.68-2.14-6.7-5.57s2.65-5.75,6.63-5.76c12,0,23.94-.16,35.91,0,17.86.3,33.69,12,38.39,28,5.28,18-4.94,37.28-22.42,42.27-15,4.28-31.51-5-34.73-20.07-2-9.5.8-17.89,8.52-24,6.64-5.27,14.16-6,21.87-2.33a22.19,22.19,0,0,1,5.55,3.93,5.35,5.35,0,0,1,.2,7.78,5.65,5.65,0,0,1-7.83.26c-2.94-2.44-6-3.76-9.88-2.41-8.73,3.07-10.53,15.45-3.17,21.93,9.35,8.23,23.08,5.23,29.19-6.38,7-13.27.83-29-14.09-34.95-4.14-1.65-8.84-2.21-13.34-2.57C292.29,455.25,286.88,455.57,281.49,455.57Z" transform="translate(-199.97 -323.88)"/><path class="cls-1" d="M222.54,455.57c-5.38,0-10.76,0-16.14,0-3.9,0-6.38-2.21-6.42-5.54s2.57-5.76,6.3-5.78q16.42-.08,32.87,0c4,0,6.41,2.38,6.31,5.94-.09,3.4-2.43,5.36-6.49,5.38C233.5,455.59,228,455.57,222.54,455.57Z" transform="translate(-199.97 -323.88)"/><path class="cls-1" d="M215.35,422.05c3.28,0,6.56-.05,9.84,0a5.15,5.15,0,0,1,5.3,4.92c.22,3.25-1.62,5.89-4.81,6q-10.43.3-20.86,0a5.29,5.29,0,0,1-4.83-5.78,5.39,5.39,0,0,1,5.52-5.11C208.79,422,212.07,422.05,215.35,422.05Z" transform="translate(-199.97 -323.88)"/><path class="cls-1" d="M357.92,352.6a5.71,5.71,0,0,1-5.8-5.57,6.21,6.21,0,0,1,5.57-5.65,5.71,5.71,0,0,1,5.65,5.73A5.35,5.35,0,0,1,357.92,352.6Z" transform="translate(-199.97 -323.88)"/><path class="cls-1" d="M228.68,373.14a5.64,5.64,0,0,1-5.55,5.8,5.67,5.67,0,1,1,0-11.34A5.63,5.63,0,0,1,228.68,373.14Z" transform="translate(-199.97 -323.88)"/><path class="cls-1" d="M245.46,491.2a5.64,5.64,0,0,1-5.38,5.64,5.84,5.84,0,0,1-5.64-5.76,5.63,5.63,0,0,1,5.47-5.55A5.44,5.44,0,0,1,245.46,491.2Z" transform="translate(-199.97 -323.88)"/></svg>