<svg id="Layer_1" data-name="Layer 1" xmlns="http://www.w3.org/2000/svg" viewBox="0 0 191.43 121.85"><defs><style>.cls-1{fill:#fff;}</style></defs><path class="cls-1" d="M283.89,413.48q32.89,0,65.8,0c5.92,0,9.2,5.06,6.46,9.84-1.38,2.41-3.53,3.3-6.23,3.3-10.47,0-20.94,0-31.41,0q-50.4,0-100.8,0c-2.66,0-5.31-.42-6.39-2.9a10.72,10.72,0,0,1-.55-6.43c.6-2.46,2.89-3.73,5.52-3.8,3-.08,6,0,9,0Z" transform="translate(-196.82 -359.12)"/><path class="cls-1" d="M305.72,453.63q-32.46,0-64.92,0a13.31,13.31,0,0,1-4.69-.53,6,6,0,0,1-3.94-5.81,6.13,6.13,0,0,1,4-6.09,11.89,11.89,0,0,1,4.37-.69q65.07-.06,130.14,0c5.7,0,8.75,2.93,8.16,7.75a6,6,0,0,1-5.51,5.33c-1.19.1-2.39.09-3.59.09Z" transform="translate(-196.82 -359.12)"/><path class="cls-1" d="M315,386.46q32.31,0,64.62,0a12.94,12.94,0,0,1,4.95.65,5.9,5.9,0,0,1,3.69,6,6.11,6.11,0,0,1-4,5.82,11.2,11.2,0,0,1-4.07.69q-65.22,0-130.44,0c-2.63,0-4.95-.63-6.59-2.81a6.16,6.16,0,0,1-.64-6.76,6,6,0,0,1,5.72-3.59c12.07,0,24.14,0,36.2,0Z" transform="translate(-196.82 -359.12)"/><path class="cls-1" d="M260.4,372.39H205.69c-5.74,0-8.83-2.29-8.86-6.51,0-4.39,3.12-6.75,9-6.76q54.7,0,109.42,0a16.87,16.87,0,0,1,4.7.58,6.27,6.27,0,0,1,4.25,6.76A6.38,6.38,0,0,1,319,372.2a25,25,0,0,1-3.88.18Z" transform="translate(-196.82 -359.12)"/><path class="cls-1" d="M263.17,467.71q21.36,0,42.72,0c2.57,0,4.95.27,6.74,2.43a6.44,6.44,0,0,1-2.83,10.24,14.46,14.46,0,0,1-4.4.58q-42.13,0-84.26,0a16.35,16.35,0,0,1-3.83-.42,6.3,6.3,0,0,1-4.95-7.1,6.52,6.52,0,0,1,6-5.64,32.66,32.66,0,0,1,3.28-.09Z" transform="translate(-196.82 -359.12)"/></svg>