<?xml version="1.0" encoding="utf-8"?>
<!-- Generator: Adobe Illustrator 25.0.0, SVG Export Plug-In . SVG Version: 6.00 Build 0)  -->
<svg version="1.1" id="Layer_1" xmlns="http://www.w3.org/2000/svg" xmlns:xlink="http://www.w3.org/1999/xlink" x="0px" y="0px"
	 viewBox="0 0 191.5 191.6" style="enable-background:new 0 0 191.5 191.6;" xml:space="preserve">
<style type="text/css">
	.st0{fill:#FFFFFF;}
</style>
<path class="st0" d="M78.3,32.1c0-2.9,0.2-5.8,0.8-8.6C81.5,12.5,88.2,5,99,1.9c11.4-3.2,21.7-0.9,30.2,7.6
	c6.2,6.2,8.2,14.2,8.2,22.7c0.1,28.3,0.1,56.6,0,85c-0.1,2.5,0.8,4.9,2.5,6.7c8.1,9.5,11,20.7,8.9,32.9c-4.1,23.8-25.5,38.9-49,34.5
	c-15.6-2.9-26.1-12.5-31.2-27.3S66,135.2,76.2,123c1.2-1.4,1.8-3.2,1.9-5c0.1-14.9,0.1-29.9,0.1-44.9C78.3,59.5,78.2,45.8,78.3,32.1
	z M89.3,77c0,14.9-0.1,29.7,0,44.6c0.1,2.7-0.9,5.3-2.9,7.1c-8.4,8.6-11.3,18.9-7.7,30.5c3.7,11.9,12.1,19.3,24.3,21.1
	c18.3,2.8,31.6-9.4,34.5-24.7c2-10.4-0.9-19.3-8.4-26.7c-2.1-1.9-3.2-4.6-3.1-7.4c0-30.2,0-60.4,0-90.6c0-8.6-4.6-15.4-11.9-17.9
	c-12.9-4.5-24.9,4.2-25,18.3C89.2,46.5,89.3,61.7,89.3,77L89.3,77z"/>
<path class="st0" d="M162.5,35.7c-3.8,0-6.4-2.4-6.4-5.7s2.4-5.6,6.1-5.6c7.7-0.1,15.3-0.1,23,0c3.9,0.1,6.2,2.6,6.1,5.8
	s-2.4,5.5-6.2,5.5s-7.6,0-11.4,0C170.1,35.7,166.4,35.8,162.5,35.7z"/>
<path class="st0" d="M185.7,120.7C185.7,120.7,185.8,120.7,185.7,120.7c3.1-0.1,5.6,2.2,5.7,5.2c0,0.2,0,0.4,0,0.5
	c0,2.9-2.3,5.2-5.2,5.2c-8.2,0.2-16.5,0.2-24.8,0c-0.1,0-0.1,0-0.2,0c-3-0.1-5.3-2.6-5.2-5.6c0.2-3.1,2.6-5.4,6-5.4
	c3.9,0,7.8,0,11.6,0C177.8,120.6,181.8,120.6,185.7,120.7z"/>
<path class="st0" d="M161.9,83.7c-3,0.1-5.5-2.3-5.7-5.3c0,0,0-0.1,0-0.1c0-3,2.4-5.4,5.4-5.5c8.1-0.1,16.3-0.1,24.4,0
	c0.2,0,0.3,0,0.5,0c2.9,0.1,5.1,2.6,5,5.4c0,3.2-2.3,5.5-5.7,5.5c-3.9,0-7.8,0-11.6,0C170,83.7,165.9,83.7,161.9,83.7z"/>
<path class="st0" d="M185.8,144.6c3-0.1,5.5,2.3,5.6,5.4c0,0.1,0,0.1,0,0.2c0.2,2.9-2,5.3-4.9,5.5c-4.5,0.3-8.9,0.3-13.4,0
	c-2.9-0.3-5.1-2.8-5-5.7c0.2-3,2.7-5.4,5.7-5.4c2-0.1,4,0,6,0S183.8,144.6,185.8,144.6z"/>
<path class="st0" d="M179.8,59.6c-2.2,0-4.4,0.1-6.6,0c-2.8-0.3-5-2.5-5.1-5.3c-0.1-2.5,1.8-5.3,4.4-5.5c4.7-0.3,9.5-0.3,14.2,0
	c3,0.2,4.7,2.8,4.6,5.6c-0.1,2.9-2.5,5.2-5.4,5.3C184,59.8,181.9,59.7,179.8,59.6L179.8,59.6z"/>
<path class="st0" d="M180,107.6c-2.1,0-4.2,0.1-6.3,0l0,0c-3,0-5.4-2.5-5.4-5.5s2.5-5.4,5.5-5.4c4.1-0.1,8.2-0.1,12.2,0
	c0.1,0,0.2,0,0.3,0c2.9,0.1,5.2,2.6,5.1,5.5c0,0,0,0,0,0.1c0,2.9-2.3,5.3-5.2,5.3C184.2,107.7,182.1,107.6,180,107.6L180,107.6z"/>
<path class="st0" d="M102.2,54.6c0-8.2-0.1-16.3,0-24.5c-0.1-3,2.4-5.5,5.4-5.6s5.5,2.4,5.6,5.4c0,1.2,0,2.4,0,3.6
	c0.1,32.2,0.1,64.4,0,96.6c0,2.3,0.5,3.6,2.8,4.8c7.1,3.6,10.8,11.7,8.9,19.4c-1.8,8-8.8,13.6-17,13.7c-8.4,0.1-15.2-5.5-17.3-14.1
	c-1.7-7.8,2.1-15.7,9.3-19.2c2-1,2.5-2.1,2.5-4.1c0-16.6,0-33.3,0-49.9C102.3,71.9,102.2,63.2,102.2,54.6z M107.7,156.6
	c3.5,0,6.5-2.8,6.5-6.3c-0.1-3.4-2.8-6.1-6.1-6.3c-3.6-0.2-6.6,2.6-6.8,6.1C101.3,153.7,104.2,156.6,107.7,156.6L107.7,156.6z"/>
<g>
	<path class="st0" d="M17.3,79.6c0.5-11.9,5.3-20.6,15.2-26c9.6-5.2,19.3-4.8,28.7,0.7c2.8,1.7,3.6,3.9,2.3,6.1
		c-1.3,2.2-3.7,2.6-6.5,0.9c-12.3-7.2-27.1-1.2-30.8,12.5c-3.3,12.5,6.4,25.3,19.4,25.5c5.1,0.1,9.4-1.5,12.9-5.3
		c1.8-1.9,4.3-2.1,6-0.5c1.7,1.6,1.7,4-0.1,6.1c-5.6,6.3-12.7,8.7-20.9,7.9c-12.7-1.3-21.9-9.3-25.3-21.5
		C17.8,83.9,17.5,81.8,17.3,79.6z"/>
	<path class="st0" d="M24.6,46.1c0,6.7-5.4,12.1-12.1,12.1c-0.1,0-0.1,0-0.2,0C5.5,58.2,0,52.7,0,46c0-6.8,5.6-12.4,12.4-12.5
		C19.2,33.6,24.7,39.2,24.6,46.1C24.6,46.1,24.6,46.1,24.6,46.1z M12.1,50.1c2.2,0,4-1.7,4.3-3.9c0.1-2.3-1.6-4.2-3.9-4.4
		c-2.1-0.1-4,1.5-4.2,3.6C8,47.8,9.7,49.9,12,50.1C12,50.2,12.1,50.2,12.1,50.1L12.1,50.1z"/>
</g>
</svg>
