<?xml version="1.0" standalone="no"?>
<!DOCTYPE svg PUBLIC "-//W3C//DTD SVG 20010904//EN"
 "http://www.w3.org/TR/2001/REC-SVG-20010904/DTD/svg10.dtd">
<svg version="1.0" xmlns="http://www.w3.org/2000/svg"
 width="512.000000pt" height="512.000000pt" viewBox="0 0 512.000000 512.000000"
 preserveAspectRatio="xMidYMid meet">

<g transform="translate(0.000000,512.000000) scale(0.100000,-0.100000)"
fill="#ffffff" stroke="none">
<path d="M2443 4746 c-70 -23 -101 -48 -281 -229 -144 -144 -175 -180 -182
-213 -23 -100 49 -194 149 -194 63 0 89 15 182 107 l88 86 3 -366 c3 -353 4
-367 24 -394 73 -98 195 -98 268 0 20 27 21 41 24 394 l3 366 88 -86 c93 -92
119 -107 182 -107 100 0 172 94 149 194 -7 33 -38 69 -187 218 -214 215 -240
231 -377 235 -57 2 -107 -2 -133 -11z"/>
<path d="M865 3520 c-48 -11 -82 -38 -105 -84 -22 -47 -25 -81 -10 -123 13
-34 355 -381 390 -395 37 -14 104 -12 138 6 61 32 92 105 77 183 -6 31 -35 66
-178 211 -95 96 -183 179 -197 186 -35 18 -80 24 -115 16z"/>
<path d="M4185 3520 c-51 -11 -65 -23 -242 -202 -143 -145 -172 -180 -178
-211 -15 -78 16 -151 77 -183 34 -18 101 -20 138 -6 35 14 377 361 390 395 15
42 12 76 -11 123 -31 66 -104 100 -174 84z"/>
<path d="M2455 3144 c-111 -11 -250 -39 -341 -69 -501 -164 -877 -594 -969
-1107 l-17 -97 -267 -3 c-301 -3 -314 -6 -359 -84 -42 -73 -19 -159 58 -211
l33 -23 1967 0 1967 0 33 22 c48 33 72 70 77 120 7 58 -23 118 -74 149 -37 23
-45 24 -304 27 l-266 3 -22 111 c-116 589 -576 1040 -1167 1143 -86 15 -282
26 -349 19z m320 -339 c446 -85 802 -447 888 -902 l7 -33 -1110 0 -1109 0 6
33 c92 487 483 856 973 916 89 11 247 5 345 -14z"/>
<path d="M1227 1216 c-49 -18 -64 -32 -89 -80 -37 -73 -13 -153 62 -203 l33
-23 1327 0 1327 0 33 23 c48 32 72 69 77 119 7 58 -23 118 -74 149 l-38 24
-1310 2 c-1078 2 -1317 0 -1348 -11z"/>
<path d="M1867 576 c-49 -18 -64 -32 -89 -80 -37 -73 -13 -153 62 -203 l33
-23 687 0 687 0 33 22 c48 33 72 70 77 120 7 58 -23 118 -74 149 l-38 24 -670
2 c-543 2 -677 0 -708 -11z"/>
</g>
</svg>
