<?xml version="1.0" standalone="no"?>
<!DOCTYPE svg PUBLIC "-//W3C//DTD SVG 20010904//EN"
 "http://www.w3.org/TR/2001/REC-SVG-20010904/DTD/svg10.dtd">
<svg version="1.0" xmlns="http://www.w3.org/2000/svg"
 width="512.000000pt" height="512.000000pt" viewBox="0 0 512.000000 512.000000"
 preserveAspectRatio="xMidYMid meet">

<g transform="translate(0.000000,512.000000) scale(0.100000,-0.100000)"
fill="#ffffff" stroke="none">
<path d="M2480 4828 c-18 -13 -43 -36 -54 -51 -20 -28 -21 -40 -24 -449 l-3
-421 -92 90 c-68 68 -103 94 -132 102 -118 31 -225 -76 -194 -194 9 -32 43
-73 182 -213 215 -216 250 -237 397 -237 147 0 182 21 397 237 139 140 173
181 182 213 31 118 -76 225 -194 194 -29 -8 -64 -34 -132 -102 l-92 -90 -3
421 c-3 409 -4 421 -24 449 -35 48 -82 73 -134 73 -32 0 -57 -7 -80 -22z"/>
<path d="M865 3520 c-48 -11 -82 -38 -105 -84 -24 -50 -25 -84 -6 -129 8 -18
94 -112 192 -209 192 -190 215 -205 290 -188 96 22 149 123 113 217 -12 32
-331 358 -369 377 -35 18 -80 24 -115 16z"/>
<path d="M4185 3520 c-51 -11 -65 -23 -242 -202 -143 -145 -172 -180 -178
-211 -15 -78 16 -151 77 -183 34 -18 101 -20 138 -6 35 14 377 361 390 395 15
42 12 76 -11 123 -31 66 -104 100 -174 84z"/>
<path d="M2415 3140 c-641 -71 -1158 -549 -1270 -1172 l-17 -97 -267 -3 c-301
-3 -314 -6 -359 -84 -42 -73 -19 -159 58 -211 l33 -23 1967 0 1967 0 33 22
c48 33 72 70 77 120 7 58 -23 118 -74 149 -37 23 -45 24 -304 27 l-266 3 -22
111 c-116 589 -576 1040 -1167 1143 -108 19 -290 26 -389 15z m360 -335 c446
-85 802 -447 888 -902 l7 -33 -1110 0 -1109 0 6 33 c92 487 483 856 973 916
89 11 247 5 345 -14z"/>
<path d="M1227 1216 c-49 -18 -64 -32 -89 -80 -37 -73 -13 -153 62 -203 l33
-23 1327 0 1327 0 33 23 c48 32 72 69 77 119 7 58 -23 118 -74 149 l-38 24
-1310 2 c-1078 2 -1317 0 -1348 -11z"/>
<path d="M1867 576 c-49 -18 -64 -32 -89 -80 -37 -73 -13 -153 62 -203 l33
-23 687 0 687 0 33 22 c48 33 72 70 77 120 7 58 -23 118 -74 149 l-38 24 -670
2 c-543 2 -677 0 -708 -11z"/>
</g>
</svg>
