<svg id="Layer_1" data-name="Layer 1" xmlns="http://www.w3.org/2000/svg" viewBox="0 0 191.67 191.57"><defs><style>.cls-1{fill:#fff;}</style></defs><path class="cls-1" d="M328.43,439.29c25.66.09,46.32-15.58,52.8-38.19a9.76,9.76,0,0,1,3.45-5.16c3.32-2.18,7.19.19,8,4.59,4.73,26.09.06,50.39-15,72.22C362,495.37,340.36,509,313,513.29c-48.79,7.66-95.81-23.79-107.54-72a96,96,0,0,1,70.46-115.73,93.69,93.69,0,0,1,40-1.07c4.08.77,5.92,2.42,6.09,5.38.19,3.32-1.38,5-5.53,6.24-21.57,6.68-34.76,21.27-38,43.45-3.64,25.09,10.36,46.53,31.76,55.68C316.76,438,323.55,439.41,328.43,439.29ZM293.65,334.62c-34.93.72-75.62,29.68-79.29,77.46a84.35,84.35,0,0,0,90.87,90.85c48.08-3.7,76.82-44.67,77.47-79.1-.78.94-1.4,1.66-2,2.41a60.66,60.66,0,0,1-20.82,17.13c-2.37,1.17-3.89,2.25-3.27,5.26.3,1.47-.26,3.14-.56,4.7-2,10.59-14.24,18.14-24.67,15.28-9-2.47-14.22-8.39-15.71-17.52a3.24,3.24,0,0,0-2.79-3.09,61.16,61.16,0,0,1-23.5-12.54,64.14,64.14,0,0,1-19.77-29.61c-13.63,5.27-22.35,3.74-28.68-5a20.45,20.45,0,0,1,.66-25.2c5.09-6.31,15.41-10.63,27-4.46A64.83,64.83,0,0,1,293.65,334.62ZM248.26,388.8a9.42,9.42,0,0,0,9.2,9.4,9.45,9.45,0,1,0-.09-18.89A9.42,9.42,0,0,0,248.26,388.8Zm96.95,60.57-17.94,1.41c-.12,3.67,4.54,7.25,8.91,7.24C340.91,458,344.62,454.4,345.21,449.37Z" transform="translate(-202.76 -322.86)"/><path class="cls-1" d="M269.07,446.82a16.75,16.75,0,0,1-.73,33.49c-9.3-.09-16.51-7.68-16.39-17.26A16.64,16.64,0,0,1,269.07,446.82Zm-.36,11.27a5.48,5.48,0,1,0,5.47,5.63A5.21,5.21,0,0,0,268.71,458.09Z" transform="translate(-202.76 -322.86)"/><path class="cls-1" d="M244.24,433.71a5.48,5.48,0,1,1-5.25-5.54A5.24,5.24,0,0,1,244.24,433.71Z" transform="translate(-202.76 -322.86)"/></svg>