<svg id="Layer_1" data-name="Layer 1" xmlns="http://www.w3.org/2000/svg" viewBox="0 0 191.51 145.91"><defs><style>.cls-1{fill:#fff;}</style></defs><path class="cls-1" d="M304.43,386.49c14.38-18.07,37.45-15.5,49.22-2.95,12,12.75,12.8,37-7.44,49.57,2.77,4,6.12,7.83,8.24,12.2,9.78,20.23-3.32,44.25-25.58,47.28a51.62,51.62,0,0,1-7.13.54q-45.48.06-91,0a34,34,0,0,1-31.95-22.29c-6.89-18.6,4.63-39.89,24-44.08,1.95-.42,2.52-1.32,2.76-3.15,3-22.81,22.92-42.06,45.66-44.11C283.94,378.38,290.29,379.71,304.43,386.49Zm-79.51,51.43c-10.9,2.54-17.73,12.62-16.64,24.53.93,10.13,10.64,19.27,21.06,19.31q48,.17,96,0a20.13,20.13,0,0,0,6.39-1.28,22.35,22.35,0,0,0-11.3-43.06,24.57,24.57,0,0,0-12.31,6.2c-2.68,2.34-5.88,2.15-8-.16a5.45,5.45,0,0,1,.66-8.19,76.91,76.91,0,0,1,10.16-6.66c2.1-1.17,4.58-1.66,7-2.51-.07-.88-.07-1.67-.21-2.44-4.53-25.22-32.28-40.19-56-30.2-20.09,8.46-31.18,31.94-22.56,53.29,1.61,4,.52,7.4-2.59,8.6s-6.39-.32-7.82-4.42S226.22,442.39,224.92,437.92Zm104.37-12.57c9.33,1.39,18.43-5.33,21.13-15.45,2.54-9.51-3.21-20.28-12.72-23.84-9-3.37-20.18.22-24,7.74A52.91,52.91,0,0,1,329.29,425.35Z" transform="translate(-196.83 -347.25)"/><path class="cls-1" d="M367.83,362.09c1.51,1.21,3.63,2.13,4.36,3.69a6.45,6.45,0,0,1-.28,5.47,32.66,32.66,0,0,1-6.87,6.92c-2,1.55-4.54,1.27-6.59-.47s-2.74-4.3-1.38-6.15c2.3-3.14,5.37-5.72,8.2-8.45.41-.39,1.32-.28,2-.41Z" transform="translate(-196.83 -347.25)"/><path class="cls-1" d="M373.3,442.93c-.87,1.17-1.69,3.25-3.16,4s-4.2.87-5.49,0a38.14,38.14,0,0,1-7.2-7c-1.59-1.91-1.07-5.12.7-6.83,1.94-1.86,4.52-2.39,6.52-.88a59.17,59.17,0,0,1,7.57,7.45C372.77,440.19,372.79,441.25,373.3,442.93Z" transform="translate(-196.83 -347.25)"/><path class="cls-1" d="M336.07,356.62c-.08,1.71,0,3.21-.24,4.68-.46,3-2.77,4.73-5.92,4.56a5.13,5.13,0,0,1-5-5.22c-.07-2.68-.08-5.37,0-8.05a5.52,5.52,0,0,1,5-5.32,5.62,5.62,0,0,1,5.81,4.52A43.63,43.63,0,0,1,336.07,356.62Z" transform="translate(-196.83 -347.25)"/><path class="cls-1" d="M292.89,362.09c1.88.93,3.34,1.35,4.41,2.24a54.29,54.29,0,0,1,5.29,5.22,5.91,5.91,0,0,1,.15,7.84,5.78,5.78,0,0,1-7.81.27c-2.14-1.91-4.43-3.84-5.9-6.23a7.29,7.29,0,0,1-.41-5.74C289.21,364.2,291.35,363.31,292.89,362.09Z" transform="translate(-196.83 -347.25)"/><path class="cls-1" d="M379,410.71c-1.39,0-2.78.07-4.17,0a5.16,5.16,0,0,1-5-5.47,5.11,5.11,0,0,1,5.05-5.42c2.78-.1,5.56-.11,8.34,0a5.37,5.37,0,0,1,5.15,5.45,5.43,5.43,0,0,1-5.18,5.44C381.77,410.78,380.38,410.71,379,410.71Z" transform="translate(-196.83 -347.25)"/></svg>