<svg id="Layer_1" data-name="Layer 1" xmlns="http://www.w3.org/2000/svg" viewBox="0 0 191.57 134.55"><defs><style>.cls-1{fill:#fff;}</style></defs><path class="cls-1" d="M355.21,407.8a39,39,0,0,1,20,9.17c11.49,10.29,16.15,23.19,12.72,38.18-3.7,16.18-14.14,26.31-30.5,29.92a42.83,42.83,0,0,1-9.18.87q-55.07.09-110.11,0c-19.67,0-34.8-11.59-39.5-30-5.35-20.9,8.1-42.75,29.22-47.46,1.16-.26,2.33-.48,3.76-.77C233.83,388.5,242.69,373,258.84,362c12.21-8.34,25.86-11.55,40.54-10.21A62.28,62.28,0,0,1,355.21,407.8ZM231.12,419.48c-13.9,1.5-25.13,17.88-22,32.43,3,13.86,14.19,23,28.42,23q54.45,0,108.9,0a57.05,57.05,0,0,0,7.72-.57A27.75,27.75,0,0,0,377,453.06a28.15,28.15,0,0,0-10.62-28.84c-11.22-8.09-25.06-7.4-35.86,2.2-2.71,2.41-7.11,2.32-8.83.26-2.19-2.64-2-5.94,1.28-8.6a62.9,62.9,0,0,1,10.37-6.93c3.12-1.62,6.67-2.4,10.24-3.63a29,29,0,0,0-.26-3.39,51.16,51.16,0,0,0-63.25-39.83c-20.57,5.31-36.79,25.41-37.26,46.63a53.36,53.36,0,0,0,3.87,21.83c.93,2.26,1.16,4.77-.8,6.36a7.2,7.2,0,0,1-5.3,1.6,6.65,6.65,0,0,1-4.1-3.69C234.45,431.37,232.92,425.52,231.12,419.48Z" transform="translate(-197.45 -351.45)"/></svg>