<svg id="Layer_1" data-name="Layer 1" xmlns="http://www.w3.org/2000/svg" viewBox="0 0 191.59 190.78"><defs><style>.cls-1{fill:#fff;}</style></defs><path class="cls-1" d="M291.12,492.7c-3.35-2-6.58-3.94-9.78-5.9-3.65-2.23-4.45-4.62-2.87-8.56,1.18-2.94,2.4-5.85,3.82-9.28-6.3,0-12.22,0-18.12.06-.47,0-1.09.77-1.34,1.31-1.26,2.8-2.42,5.63-3.72,8.71,3.34,2,6.56,3.94,9.75,5.9,3.69,2.26,4.55,4.67,3,8.53q-3.33,8.13-6.79,16.21c-1.55,3.62-4.51,5.07-7.62,3.85s-4.19-4.6-2.66-8.32c1.66-4,3.35-8.07,5.18-12.47-2.88-1.76-5.81-3.56-8.75-5.34-5.16-3.13-5.71-4.78-3.43-10.24,1-2.38,2-4.77,3-7.16a5.8,5.8,0,0,0,.1-1.08c-4.35,0-8.66-.06-13,0-6.9.13-5.09-1.26-7.82,5.19-2.1,4.95-2,5,2.53,7.71,2,1.18,4,2.3,5.87,3.55,2.89,1.91,3.7,4.29,2.42,7.47-2.34,5.81-4.73,11.59-7.23,17.33-1.43,3.31-4.69,4.59-7.61,3.23s-3.91-4.41-2.63-7.64c1.68-4.25,3.48-8.45,5.38-13-3.07-1.88-6.17-3.79-9.28-5.68-4.45-2.71-5.12-4.62-3.18-9.37,1.27-3.1,2.59-6.17,3.69-8.77-4.55-2.68-9.18-4.68-12.94-7.75-10.41-8.49-14.35-19.85-11.54-32.83S206.65,406.6,219.73,403c2.36-.65,3.42-1.54,3.81-4.25,3.05-21.44,21.09-39.47,42.78-43a52.88,52.88,0,0,1,27.59,2.7c.69-1.91,1.28-3.66,1.95-5.38,7.31-18.7,26.07-32,49.51-29.58a21.49,21.49,0,0,1,3.8.76,5.59,5.59,0,0,1,.76,10.57,56.09,56.09,0,0,0-6,2.57,20.48,20.48,0,0,0-9.63,22c2.23,9,9.82,15.6,18.55,16,9.66.49,17.8-4.82,20.88-13.65.79-2.27,1.43-4.61,4.09-5.49,3.81-1.27,7,1,7.75,5.53,4,24.39-10.56,46.79-34.55,53.34a3.22,3.22,0,0,0-.81.31c1.66,5.2,3.84,10.22,4.81,15.47,2.85,15.43-7.2,30.51-20.85,35.77a5.25,5.25,0,0,1-1.42.42c-7.43.39-9.43,5.85-11.07,12,3.1,1.87,6.32,3.79,9.53,5.75,3.78,2.31,4.54,4.64,2.83,8.78q-3.5,8.4-7.06,16.76c-1.13,2.65-3.25,3.63-6,3.29a5,5,0,0,1-4.53-4.49,8.82,8.82,0,0,1,.82-4.27c1.57-4.06,3.29-8.06,5-12.29L313,487.09c-4.38-2.66-5.08-4.74-3.17-9.38,1.13-2.74,2.26-5.48,3.62-8.75-6.32,0-12.23,0-18.14.05-.46,0-1.1.76-1.34,1.31-1.25,2.8-2.4,5.64-3.69,8.72,3.33,2,6.55,3.93,9.75,5.88,3.72,2.28,4.54,4.59,2.93,8.52q-3.32,8.15-6.77,16.23c-1.54,3.63-4.48,5.07-7.6,3.86s-4.2-4.63-2.7-8.29C287.59,501.12,289.32,497,291.12,492.7Zm-68.43-79c-.88.29-1.92.57-2.9,1a22.59,22.59,0,0,0-13.57,24.71,22.88,22.88,0,0,0,22.58,18.5q46.35.13,92.69-.05a25.27,25.27,0,0,0,9-1.84c10.09-4,15.41-14.49,13.27-25.56-1.91-9.91-11.25-17.31-21.73-17.42-6.23-.06-11.36,2.26-15.92,6.33-3.47,3.1-8.4,1.75-9.47-2.49-.6-2.38.37-4.23,2.07-5.87a34.91,34.91,0,0,1,16.89-8.79,16.51,16.51,0,0,0,0-2.56c-4-24.29-31-39.65-54.24-31-20.83,7.71-33.36,31.86-24.25,54.2,1.68,4.13.61,7-2.85,8.4-3.21,1.26-6.09-.16-7.54-4.22S224.1,418.49,222.69,413.72Zm105.62-77a4.38,4.38,0,0,0-1.2-.05q-17.22,6.94-22.2,24.83c-.46,1.66-.06,2.8,1.49,4,11.59,8.87,18.61,20.48,20.59,35,.08.61.44,1.55.87,1.68,3.87,1.16,7.75,3,11.68,3.09,14.29.42,27.55-8.72,32.86-22a20.47,20.47,0,0,0,.6-2.34c-14.37,9.23-29.3,6.64-39.16-1.76a30.49,30.49,0,0,1-10.38-17A32.22,32.22,0,0,1,328.31,336.68Z" transform="translate(-194.63 -323.18)"/></svg>